<svg xmlns="http://www.w3.org/2000/svg" width="320" height="66" viewBox="0 0 320 66">
  <g transform="translate(-27.5 -742.5)">
    <path id="Path_6045" data-name="Path 6045" d="M665.852,1900.734H364.474a8.934,8.934,0,0,0-8.811,9.054v35.1a8.935,8.935,0,0,0,8.811,9.054H505.622a4.4,4.4,0,0,1,3.916,2.442l4.33,8.546a1.442,1.442,0,0,0,2.591,0l4.33-8.547a4.4,4.4,0,0,1,3.914-2.441h141.15a8.935,8.935,0,0,0,8.811-9.054v-35.1A8.935,8.935,0,0,0,665.852,1900.734Z" transform="translate(-327.663 -1157.734)" fill="#fff"/>
    <path id="Path_6045_-_Outline" data-name="Path 6045 - Outline" d="M364.474,1900.234H665.852a9.446,9.446,0,0,1,9.311,9.554v35.1a9.446,9.446,0,0,1-9.311,9.554H524.7a3.886,3.886,0,0,0-3.468,2.166l-4.33,8.547a1.942,1.942,0,0,1-3.483,0l-4.33-8.546a3.889,3.889,0,0,0-3.47-2.168H364.474a9.446,9.446,0,0,1-9.311-9.554v-35.1A9.446,9.446,0,0,1,364.474,1900.234Zm301.378,53.2a8.445,8.445,0,0,0,8.311-8.554v-35.1a8.445,8.445,0,0,0-8.311-8.554H364.474a8.445,8.445,0,0,0-8.311,8.554v35.1a8.445,8.445,0,0,0,8.311,8.554H505.622a4.884,4.884,0,0,1,4.362,2.716l4.33,8.546a.943.943,0,0,0,1.7,0l4.33-8.547a4.882,4.882,0,0,1,4.36-2.715Z" transform="translate(-327.663 -1157.734)" fill="#1e55cd"/>
  </g>
</svg>
