<svg id="グループ_371" data-name="グループ 371" xmlns="http://www.w3.org/2000/svg" xmlns:xlink="http://www.w3.org/1999/xlink" width="87.857" height="77.58" viewBox="0 0 87.857 77.58">
  <defs>
    <clipPath id="clip-path">
      <rect id="長方形_291" data-name="長方形 291" width="87.857" height="77.58" fill="#1e55cd"/>
    </clipPath>
  </defs>
  <g id="グループ_370" data-name="グループ 370" clip-path="url(#clip-path)">
    <path id="パス_556" data-name="パス 556" d="M40.117,1.35a4.581,4.581,0,0,0-6.48,0L1.347,33.64A4.589,4.589,0,0,0,4.6,41.47H20.3a2,2,0,1,0,0-4H4.6a.559.559,0,0,1-.54-.36.549.549,0,0,1,.13-.64L36.477,4.18a.585.585,0,0,1,.83,0l32.17,32.17a.566.566,0,0,1,.13.64.547.547,0,0,1-.54.36H39.407a4.586,4.586,0,0,0-4.58,4.58V75.58a2,2,0,0,0,4,0V41.93a.58.58,0,0,1,.58-.58h29.65a4.589,4.589,0,0,0,3.25-7.83Z" fill="#1e55cd"/>
    <path id="パス_557" data-name="パス 557" d="M85.857,0a2.006,2.006,0,0,0-2,2V75.57a2,2,0,0,0,4,0V2a2.006,2.006,0,0,0-2-2" fill="#1e55cd"/>
  </g>
</svg>
