<?xml version="1.0" encoding="utf-8"?>
<!-- Generator: Adobe Illustrator 25.3.1, SVG Export Plug-In . SVG Version: 6.00 Build 0)  -->
<svg version="1.1" id="_x31_0" xmlns="http://www.w3.org/2000/svg" xmlns:xlink="http://www.w3.org/1999/xlink" x="0px" y="0px"
	 viewBox="0 0 2134 1539" style="enable-background:new 0 0 2134 1539;" xml:space="preserve">
<style type="text/css">
	.st0{fill:#FFFFFF;}
</style>
<g>
	<path class="st0" d="M1328.7,842.4c0,174.6,122.5,252.6,244.2,252.6c119.6,0,248.4-79.2,248.4-252.6
		c0-145.5-105.9-246.3-249.2-311.8c-1.3,0.4-2.5,1.3-3.8,1.7C1409.2,605.3,1328.7,709.5,1328.7,842.4z"/>
	<path class="st0" d="M312.6,842.4c0,78.8,26.7,144.6,76.7,189.6c44.6,40,107.1,62.9,172.1,62.9c121.7,0,244.2-77.9,244.2-252.6
		c0-133-80.9-237.2-239.7-309.7c-1.3-0.4-2.5-1.3-3.8-1.7C418.5,596.1,312.6,697,312.6,842.4z"/>
	<path class="st0" d="M2134,438.1L2134,438.1v-0.8h-67.1c-92.5,0-184.2,9.2-270.1,25.8c-17.5,3.3-35.4,6.3-52.5,10.4l0.4,0.4
		c-0.4,0-0.4,0-0.8,0c139.2,94.6,211.7,220.1,211.7,368.4c0,149.2-65.9,239.7-120.9,289.3c-70,62.9-163,97.5-261.7,97.5
		c-188,0-378.5-133-378.5-387.2c0-8.3,0.4-16.3,0.8-24.2c0-3.3,0.4-6.3,0.4-9.6c1.3-17.1,3.3-34.2,6.7-50.4c0-1.3,0.4-2.1,0.4-3.3
		c14.2-69.2,44.6-129.6,88.4-182.6c3.3-3.8,6.3-7.9,10-11.7c5.4-6.3,11.3-12.5,17.1-18.3c10-10,20.4-20,32.1-30
		c1.7-1.3,2.9-2.5,4.6-3.8c14.6-12.5,30.4-24.2,47.5-35.4h-0.4c0.4,0,0.4-0.4,0.8-0.4c-113.4-28.3-232.6-40.4-335.1-40.4
		c-81.3,0-173,8.3-263.8,25.4c-24.2,4.6-47.9,9.2-70.9,14.6l0.4,0.4c-0.4,0-0.4,0-0.8,0c7.1,5,14.2,10,20.8,15
		c1.7,1.3,3.3,2.5,4.6,3.8c89.2,68.4,151.7,155.9,173.4,263.8c0,0.8,0.4,1.7,0.4,2.9c3.3,16.3,5.4,33.3,6.7,50.8
		c0.4,2.9,0.4,6.3,0.4,9.2c0.4,7.9,0.8,16.3,0.8,24.2c0,254.2-190.5,387.2-378.5,387.2c-190.5,0-383-133-383-387.2
		c0-116.7,45.8-219.2,132.5-303.8c23.3-22.9,49.2-44.2,78.8-64.2h-0.4c0.4,0,0.4-0.4,0.8-0.4c-99.6-23.8-210.9-36.7-322.6-36.7H0
		V1466c0,40.4,32.5,72.9,72.9,72.9h1988.1c40.4,0,72.9-32.5,72.9-72.9V440.6V438.1L2134,438.1z"/>
	<path class="st0" d="M562.3,385.6C709,329.4,889,297.7,1067,297.7s358,31.7,504.7,87.9c146.7-55.9,321.4-82.9,495.2-82.9h67.1V73
		c0-40.4-32.5-72.9-72.9-72.9H72.9C32.5,0.1,0,32.6,0,73v230.1h67.1C240.9,303.1,415.5,329.8,562.3,385.6z"/>
</g>
</svg>
