<svg xmlns="http://www.w3.org/2000/svg" xmlns:xlink="http://www.w3.org/1999/xlink" width="241.966" height="45.938" viewBox="0 0 241.966 45.938">
  <defs>
    <clipPath id="clip-path">
      <rect id="長方形_325" data-name="長方形 325" width="241.966" height="45.938" transform="translate(0 0)" fill="none"/>
    </clipPath>
  </defs>
  <g id="グループ_491" data-name="グループ 491" transform="translate(0 0)">
    <g id="グループ_490" data-name="グループ 490" clip-path="url(#clip-path)">
      <path id="パス_594" data-name="パス 594" d="M40.078,42.275a44.248,44.248,0,0,1-16.787,3.662q-10.958,0-17.124-6.064T0,22.88q0-10.516,6.313-16.7T23.525,0A38.136,38.136,0,0,1,39.961,3.9v8.965H38.935a31.518,31.518,0,0,0-8.466-4.907,20.9,20.9,0,0,0-6.329-1.04,13.013,13.013,0,0,0-10.209,4.2q-3.765,4.2-3.765,11.587,0,8.026,3.882,12.231t11.264,4.2a18.526,18.526,0,0,0,5.3-.732V28.359H20.742V21.328H40.078Z" fill="#fff"/>
      <path id="パス_595" data-name="パス 595" d="M86.573,42.275a44.248,44.248,0,0,1-16.788,3.662q-10.958,0-17.124-6.064T46.494,22.88q0-10.516,6.314-16.7T70.02,0A38.14,38.14,0,0,1,86.456,3.9v8.965H85.43a31.533,31.533,0,0,0-8.466-4.907,20.9,20.9,0,0,0-6.329-1.04,13.014,13.014,0,0,0-10.21,4.2Q56.66,15.322,56.66,22.7q0,8.026,3.882,12.231t11.265,4.2a18.526,18.526,0,0,0,5.3-.732V28.359H67.237V21.328H86.573Z" fill="#fff"/>
      <path id="パス_596" data-name="パス 596" d="M114.212,29.736a15.47,15.47,0,0,1-5.875,1.281,8.173,8.173,0,0,1-5.993-2.123,7.955,7.955,0,0,1-2.159-5.947,7.8,7.8,0,0,1,2.21-5.844,8.243,8.243,0,0,1,6.024-2.164,13.363,13.363,0,0,1,5.752,1.363v3.139h-.358a11.03,11.03,0,0,0-2.964-1.717,7.283,7.283,0,0,0-2.215-.365,4.548,4.548,0,0,0-3.573,1.473,5.855,5.855,0,0,0-1.318,4.054,6.092,6.092,0,0,0,1.359,4.282,5.1,5.1,0,0,0,3.942,1.47,6.44,6.44,0,0,0,1.856-.256V24.865h-3.456V22.4h6.768Z" fill="#fff"/>
      <path id="パス_597" data-name="パス 597" d="M131.7,30.689h-4.184l-4.532-5.855h-2.153v5.855h-3.384V15.236h5.916A7.433,7.433,0,0,1,128,16.381a3.769,3.769,0,0,1,1.421,3.1,4.8,4.8,0,0,1-3.087,4.543Zm-10.89-13.021v4.809h1.518a4.122,4.122,0,0,0,2.891-.729,2.616,2.616,0,0,0,.707-1.906,1.982,1.982,0,0,0-.677-1.612,4.423,4.423,0,0,0-2.666-.562Z" fill="#fff"/>
      <path id="パス_598" data-name="パス 598" d="M140.9,30.689h-8.429V28.383H135V17.545h-2.523V15.236H140.9v2.308h-2.522V28.383H140.9Z" fill="#fff"/>
      <path id="パス_599" data-name="パス 599" d="M155.741,17.8h-5.075V30.69h-3.384V17.8h-5.076V15.237h13.535Z" fill="#fff"/>
      <path id="パス_600" data-name="パス 600" d="M177.766,29.736a15.47,15.47,0,0,1-5.875,1.281,8.173,8.173,0,0,1-5.993-2.123,7.955,7.955,0,0,1-2.159-5.947,7.8,7.8,0,0,1,2.21-5.844,8.243,8.243,0,0,1,6.024-2.164,13.363,13.363,0,0,1,5.752,1.363v3.139h-.358a11.03,11.03,0,0,0-2.964-1.717,7.283,7.283,0,0,0-2.215-.365,4.548,4.548,0,0,0-3.573,1.473,5.855,5.855,0,0,0-1.318,4.054,6.092,6.092,0,0,0,1.359,4.282,5.1,5.1,0,0,0,3.942,1.47,6.44,6.44,0,0,0,1.856-.256V24.865H171V22.4h6.768Z" fill="#fff"/>
      <path id="パス_601" data-name="パス 601" d="M195.25,30.689h-4.184l-4.532-5.855h-2.153v5.855H181V15.236h5.916a7.433,7.433,0,0,1,4.639,1.145,3.769,3.769,0,0,1,1.421,3.1,4.8,4.8,0,0,1-3.087,4.543ZM184.36,17.668v4.809h1.518a4.122,4.122,0,0,0,2.891-.729,2.616,2.616,0,0,0,.707-1.906,1.982,1.982,0,0,0-.677-1.612,4.423,4.423,0,0,0-2.666-.562Z" fill="#fff"/>
      <path id="パス_602" data-name="パス 602" d="M203.309,31.017a7.226,7.226,0,0,1-5.542-2.148,8.264,8.264,0,0,1-2.015-5.891,8.319,8.319,0,0,1,2.005-5.91,8.245,8.245,0,0,1,11.1,0,8.3,8.3,0,0,1,2.015,5.906,8.3,8.3,0,0,1-2.005,5.881,7.218,7.218,0,0,1-5.563,2.158m.01-13.658a3.454,3.454,0,0,0-2.922,1.467,6.873,6.873,0,0,0-1.087,4.152,6.837,6.837,0,0,0,1.087,4.139,3.634,3.634,0,0,0,5.834-.012,6.848,6.848,0,0,0,1.087-4.137,6.874,6.874,0,0,0-1.081-4.142,3.443,3.443,0,0,0-2.918-1.467" fill="#fff"/>
      <path id="パス_603" data-name="パス 603" d="M226.524,24.906a5.822,5.822,0,0,1-1.708,4.574,7.073,7.073,0,0,1-4.875,1.528,7,7,0,0,1-4.876-1.543,5.853,5.853,0,0,1-1.7-4.559v-9.67h3.394v9.578a4.06,4.06,0,0,0,.789,2.789,3.788,3.788,0,0,0,4.8.006,4.076,4.076,0,0,0,.774-2.775v-9.6h3.4Z" fill="#fff"/>
      <path id="パス_604" data-name="パス 604" d="M233.384,25.43v5.259H230V15.236h5.844a7.277,7.277,0,0,1,4.564,1.227,4.284,4.284,0,0,1,1.559,3.584,4.882,4.882,0,0,1-1.723,3.922,6.707,6.707,0,0,1-4.491,1.461Zm-.021-7.762v5.311h.9q2.544,0,3.369-.7a2.68,2.68,0,0,0,.826-2.16,2.186,2.186,0,0,0-.8-1.824,5.47,5.47,0,0,0-3.143-.625Z" fill="#fff"/>
    </g>
  </g>
</svg>
